# xmcd
#
# Track frame offsets:
#	150
#	14487
#	27755
#	44014
#	56567
#	71765
#	82400
#	93602
#	104142
#	124165
#	133035
#
# Disc length: 1876 seconds
#
# Revision: 1
# Processed by: cddbd v1.5.1PL0 Copyright (c) Steve Scherf et al.
# Submitted via: audiograbber 1.83.01
#
DISCID=a807520b
DTITLE=Marco Neves - Viola Louvadeira
DYEAR=1900
DGENRE=Instrumental
TTITLE0=Vencendo Vem Jesus
TTITLE1=Buscai Primeiro
TTITLE2=Conta as Bençãos
TTITLE3=Alegre
TTITLE4=Chuvas de Bençãos
TTITLE5=Canto da Terra
TTITLE6=Sou Feliz
TTITLE7=Jesus no Sertão
TTITLE8=Seu Maravilhoso Olhar
TTITLE9=Ao Que Está
TTITLE10=Oração para Noite
EXTD=
EXTT0=
EXTT1=
EXTT2=
EXTT3=
EXTT4=
EXTT5=
EXTT6=
EXTT7=
EXTT8=
EXTT9=
EXTT10=
PLAYORDER=
